# xmcd
# 
# Track frame offsets:
#     150
#     11392
#     30517
#     74442
#     90947
#     109485
#     128762
#     145127
#     164087
# 
# Disc length: 2498
# 
# Revision: 9
# Processed by: cddbd v1.5.2PL0 Copyright (c) Steve Scherf et al.
# Submitted via: BonkEnc v1.0.8
# 
DISCID=7309c009
DTITLE=Frank Zappa - Zoot Allures
DYEAR=1976
DGENRE=Rock
TTITLE0=Wind Up Workin' In A Gas Station
TTITLE1=Black Napkins
TTITLE2=The Torture Never Stops
TTITLE3=Ms. Pinky
TTITLE4=Find Her Finer
TTITLE5=Friendly Little Finger
TTITLE6=Wonderful Wino
TTITLE7=Zoot Allures
TTITLE8=Disco Boy
EXTD=
EXTT0=
EXTT1=
EXTT2=
EXTT3=
EXTT4=
EXTT5=
EXTT6=
EXTT7=
EXTT8=
PLAYORDER=
